<svg xmlns="http://www.w3.org/2000/svg" viewBox="0 0 1200 360" role="img" aria-labelledby="title desc">
<title id="title">Cloudflared guides</title>
<desc id="desc">Hero banner for Cloudflared guides</desc>
<defs>
  <linearGradient id="g" x1="0" y1="0" x2="1" y2="1">
    <stop offset="0%" stop-color="#0f172a"/>
    <stop offset="45%" stop-color="#1e3a8a"/>
    <stop offset="100%" stop-color="#f97316"/>
  </linearGradient>
  <filter id="shadow" x="-20%" y="-20%" width="140%" height="140%"><feDropShadow dx="0" dy="10" stdDeviation="18" flood-color="#020617" flood-opacity="0.35"/></filter>
</defs>
<rect width="1200" height="360" rx="34" fill="url(#g)"/>
<circle cx="1000" cy="70" r="170" fill="#ffffff" opacity="0.08"/>
<circle cx="170" cy="310" r="180" fill="#ffffff" opacity="0.06"/>
<g filter="url(#shadow)">
  <rect x="80" y="86" width="1040" height="188" rx="28" fill="#0f172a" opacity="0.72"/>
  <text x="120" y="155" fill="#fff" font-family="Inter,Segoe UI,Arial,sans-serif" font-size="46" font-weight="800">Cloudflared — guides essentiels</text>
  <text x="120" y="205" fill="#dbeafe" font-family="Inter,Segoe UI,Arial,sans-serif" font-size="24">Comprendre • préparer • tester • déployer • dépanner</text>
  <text x="120" y="244" fill="#fed7aa" font-family="Inter,Segoe UI,Arial,sans-serif" font-size="20">Cloudflare Tunnel sans ouverture de port entrant</text>
</g>
<g transform="translate(925 116)">
  <rect width="140" height="98" rx="18" fill="#fff" opacity="0.95"/>
  <path d="M37 62c-13 0-23-9-23-21s10-21 23-21c7-14 22-22 39-18 17 3 29 17 31 34 12 2 21 12 21 24 0 14-11 24-25 24H37z" fill="#f97316"/>
  <path d="M50 61h57" stroke="#fff" stroke-width="10" stroke-linecap="round" opacity="0.85"/>
</g>
</svg>
